<?xml version="1.0" standalone="no"?>
<!DOCTYPE svg PUBLIC "-//W3C//DTD SVG 20010904//EN"
 "http://www.w3.org/TR/2001/REC-SVG-20010904/DTD/svg10.dtd">
<svg version="1.0" xmlns="http://www.w3.org/2000/svg"
 width="1200.000000pt" height="720.000000pt" viewBox="0 0 1200.000000 720.000000"
 preserveAspectRatio="xMidYMid meet">
<metadata>
Created by potrace 1.15, written by Peter Selinger 2001-2017
</metadata>
<g transform="translate(0.000000,720.000000) scale(0.100000,-0.100000)"
fill="#000000" stroke="none">
<path d="M5790 7029 l0 -70 83 7 c45 3 83 8 85 9 2 2 0 30 -4 64 l-7 61 -78 0
-79 0 0 -71z"/>
<path d="M5674 7079 c-4 -7 -22 -9 -50 -4 -41 6 -59 -4 -34 -20 16 -10 11 -51
-8 -68 -39 -36 -82 -15 -82 40 0 40 -4 41 -39 8 -14 -14 -41 -38 -58 -54 -19
-16 -33 -39 -33 -52 0 -24 -10 -25 195 5 61 9 129 19 153 22 l42 5 0 65 0 64
-39 0 c-22 0 -43 -5 -47 -11z"/>
<path d="M5200 7004 c-138 -36 -304 -89 -422 -135 l-128 -50 0 -75 c0 -41 2
-74 4 -74 2 0 30 12 62 26 132 59 345 131 511 174 l41 10 0 70 c0 39 -3 70 -7
69 -3 0 -31 -7 -61 -15z"/>
<path d="M4563 6778 c-31 -16 -43 -29 -47 -52 -4 -16 -16 -40 -27 -52 -23 -24
-19 -58 7 -68 8 -3 39 7 69 21 l55 27 0 73 c0 40 -3 73 -7 72 -5 0 -27 -10
-50 -21z"/>
<path d="M7638 6658 c-21 -21 -38 -47 -38 -57 0 -12 26 -33 79 -63 l80 -45 45
46 c25 26 46 49 46 53 0 3 -20 18 -45 33 -45 26 -71 26 -61 0 6 -17 -31 -65
-50 -65 -19 0 -54 36 -54 56 0 8 13 28 29 44 16 16 23 31 17 33 -6 2 -28 -14
-48 -35z"/>
<path d="M4338 6661 l-47 -27 21 -22 c12 -12 23 -37 24 -58 2 -20 5 -39 8 -41
9 -9 66 32 66 47 0 9 7 25 15 36 8 10 15 33 15 50 0 25 -5 33 -22 38 -30 8
-27 9 -80 -23z"/>
<path d="M8105 6340 c-29 -30 -45 -53 -40 -58 6 -5 35 -28 65 -52 30 -24 94
-79 141 -121 l86 -78 36 37 c56 57 50 74 -51 164 -48 42 -110 95 -138 117
l-51 40 -48 -49z"/>
<path d="M3815 6299 c-95 -80 -99 -99 -19 -99 34 0 46 -5 54 -21 27 -50 59 41
33 93 -13 25 -13 32 1 53 18 27 54 33 74 13 20 -20 13 -60 -15 -90 -35 -37
-26 -44 15 -12 25 20 32 33 32 60 0 54 -15 74 -55 74 -27 0 -50 -14 -120 -71z"/>
<path d="M3662 6162 c-55 -48 -56 -79 -6 -129 l36 -35 39 38 c32 31 36 40 24
47 -10 5 -15 23 -15 50 0 38 -13 68 -29 67 -4 0 -25 -17 -49 -38z"/>
<path d="M8529 5953 l-47 -49 59 -67 c32 -37 70 -83 85 -102 20 -27 30 -33 40
-24 18 15 51 2 70 -27 13 -19 14 -29 5 -52 -11 -25 -6 -36 76 -159 l88 -132 5
70 c4 55 9 74 25 85 19 14 19 15 1 49 -30 54 -227 312 -298 389 l-63 68 -46
-49z"/>
<path d="M3240 5683 c-44 -60 -80 -111 -80 -115 0 -5 36 -8 79 -8 l80 0 44 58
c24 31 47 63 51 70 5 8 -9 29 -39 57 -25 25 -48 45 -50 45 -3 0 -41 -48 -85
-107z"/>
<path d="M3099 5476 c-18 -29 -24 -48 -18 -57 24 -39 -10 -99 -57 -99 -12 0
-24 -7 -28 -15 -4 -12 6 -15 57 -15 34 0 71 3 82 6 11 3 41 40 67 82 26 42 57
92 69 110 l21 32 -84 0 -83 -1 -26 -43z"/>
<path d="M8962 5458 c-8 -8 -12 -46 -12 -104 l0 -92 58 -113 c64 -126 132
-284 182 -426 l33 -93 69 0 68 0 -6 28 c-4 15 -27 85 -53 156 -41 116 -46 125
-53 98 -6 -21 -17 -33 -39 -41 -27 -9 -33 -8 -55 14 -29 29 -30 38 -3 81 22
36 49 43 69 19 30 -36 17 2 -45 131 -68 145 -184 354 -195 354 -3 0 -11 -5
-18 -12z"/>
<path d="M2860 5021 c-5 -11 -10 -31 -10 -44 0 -13 -9 -36 -20 -50 -11 -14
-27 -44 -35 -66 -14 -40 -13 -41 5 -31 10 5 45 10 77 10 l58 1 32 81 c30 76
32 83 16 100 -23 26 -108 25 -123 -1z"/>
<path d="M3501 4977 c-8 -10 -7 -19 4 -33 8 -10 15 -28 15 -40 0 -23 -29 -54
-51 -54 -14 0 -95 -77 -88 -84 2 -2 21 -6 43 -9 37 -6 42 -3 102 55 39 37 64
69 64 82 0 55 67 89 90 47 24 -46 1 -90 -48 -91 -14 0 -48 -24 -90 -65 l-67
-65 -82 0 c-45 0 -84 -3 -87 -8 -2 -4 58 -8 135 -9 132 -2 139 -1 139 18 0 11
7 31 16 44 22 33 59 33 80 0 24 -36 6 -75 -34 -75 -15 0 -37 -7 -48 -15 -17
-13 -6 -14 106 -15 l124 0 39 38 38 37 159 -1 159 -1 44 -39 c24 -21 51 -43
60 -49 27 -17 32 -60 8 -84 -12 -12 -26 -21 -31 -21 -6 0 -32 20 -58 44 -26
24 -54 45 -62 46 -8 1 -68 2 -132 1 l-118 -1 -41 -37 c-33 -30 -38 -38 -25
-45 11 -6 24 -4 38 6 28 20 62 20 78 1 17 -20 32 -19 63 5 14 11 32 20 40 20
20 0 47 -33 47 -58 0 -21 4 -22 119 -22 l120 0 -5 133 c-5 122 -7 134 -30 158
-28 29 -30 46 -8 77 20 29 51 25 77 -9 15 -21 17 -31 8 -47 -7 -12 -11 -79
-11 -166 l0 -146 268 0 267 0 0 38 c-1 34 -9 46 -98 132 l-97 95 0 113 0 114
-82 -6 c-98 -6 -75 -6 -273 0 -125 4 -161 3 -170 -8 -5 -7 -29 -30 -53 -50
l-42 -38 -176 0 -175 0 -53 50 -53 50 -75 0 c-51 0 -79 -4 -87 -13z"/>
<path d="M4770 4887 l0 -102 93 -93 c78 -78 97 -92 125 -92 45 0 75 -32 67
-71 l-7 -29 230 0 c200 0 231 2 236 16 3 9 6 109 6 223 0 171 3 210 16 229 15
22 15 22 -40 22 -50 0 -56 -2 -56 -20 0 -11 7 -23 15 -26 11 -5 15 -23 15 -76
l0 -69 -62 3 -63 3 -3 54 c-2 41 1 61 16 80 35 47 24 51 -149 51 -168 0 -175
-2 -144 -44 8 -11 15 -31 15 -46 0 -19 21 -47 80 -105 l80 -80 83 -12 c45 -6
96 -15 113 -18 l31 -7 -1 -71 -1 -71 -50 2 c-37 2 -55 9 -68 25 -17 19 -27 21
-89 18 l-69 -3 -115 113 c-66 66 -117 124 -120 139 -3 14 -14 41 -25 61 -10
20 -19 51 -19 68 l0 31 -70 0 -70 0 0 -103z"/>
<path d="M5697 4952 c-33 -34 -37 -43 -37 -89 l0 -51 48 -6 c48 -6 140 -2 148
7 2 2 -2 10 -11 17 -19 16 -19 74 0 90 12 10 21 10 40 2 14 -7 25 -16 25 -22
0 -22 28 -7 75 40 l49 50 -34 0 c-19 0 -43 -7 -54 -15 -11 -8 -30 -12 -46 -8
-38 7 -110 -56 -110 -98 0 -49 -58 -66 -85 -25 -14 20 -14 29 -4 48 16 30 29
38 54 32 14 -3 31 6 55 31 l34 35 -55 0 c-50 0 -58 -3 -92 -38z"/>
<path d="M6400 4964 c0 -17 14 -42 40 -70 40 -43 40 -44 40 -122 0 -71 3 -83
30 -123 16 -24 30 -51 30 -60 0 -9 11 -24 25 -33 34 -22 32 -79 -3 -107 -25
-19 -25 -22 -23 -137 2 -114 2 -118 -23 -141 -22 -21 -26 -33 -26 -86 0 -58 2
-63 40 -100 l40 -39 0 -172 c0 -140 3 -174 15 -184 18 -15 20 -61 3 -78 -19
-19 -55 -14 -72 9 -15 22 -7 58 21 87 8 9 11 56 9 168 l-3 155 -42 43 c-40 40
-41 44 -41 108 0 56 4 71 25 96 23 28 25 37 25 142 0 107 -1 114 -25 136 -33
30 -32 57 5 96 17 17 30 32 30 34 0 1 -16 21 -35 44 -30 36 -35 50 -37 98 -2
101 -5 113 -27 135 l-21 21 0 -161 c0 -130 3 -163 15 -173 23 -19 22 -340 -1
-380 -17 -28 -16 -39 10 -75 13 -18 13 -24 -1 -53 l-16 -32 43 -46 c38 -41 42
-50 36 -82 -3 -23 -19 -50 -46 -77 l-40 -41 0 -98 c0 -92 1 -97 19 -91 24 7
61 -26 61 -54 0 -27 -27 -51 -56 -51 l-24 0 0 -353 0 -353 30 -29 c30 -28 30
-30 30 -137 0 -59 2 -108 4 -108 3 0 32 16 65 35 l61 36 0 348 c0 324 -1 349
-18 364 -10 10 -27 17 -38 17 -46 1 -67 46 -44 91 23 41 80 11 80 -42 0 -16 4
-29 8 -29 4 0 15 -13 25 -29 15 -26 17 -66 17 -366 l0 -336 62 33 c48 25 57
34 41 36 -46 7 -48 18 -50 320 -1 190 -5 288 -12 295 -26 26 9 107 46 107 9 0
40 25 70 55 52 52 57 55 106 55 29 1 152 1 275 2 123 1 225 5 228 9 3 5 -4 17
-16 29 -11 11 -20 27 -20 35 0 18 35 55 53 55 17 0 44 -21 49 -39 3 -11 15 -5
43 21 l39 36 -309 0 c-489 1 -472 0 -489 18 -9 8 -16 28 -16 43 0 21 -16 43
-60 88 l-60 60 0 66 c0 62 2 70 34 105 19 21 37 49 41 63 3 14 15 31 26 38 17
10 25 9 45 -4 42 -27 28 -95 -20 -95 -11 0 -33 -12 -48 -27 -23 -22 -28 -35
-28 -78 0 -48 3 -53 53 -103 35 -34 61 -52 77 -52 39 0 53 -14 48 -46 l-4 -29
380 2 379 1 36 36 36 36 -181 0 c-99 0 -184 -4 -189 -9 -20 -18 -80 -22 -100
-6 -14 10 -47 14 -110 15 l-90 0 -29 36 c-16 20 -44 42 -62 50 -38 16 -58 46
-49 74 14 44 77 49 91 8 3 -11 22 -38 41 -59 l35 -39 84 0 c45 0 86 5 89 10 8
14 72 13 81 -1 4 -7 73 -10 218 -9 116 1 220 1 230 -1 26 -5 32 17 8 30 -29
15 -601 18 -629 3 -15 -8 -30 -9 -47 -2 -33 12 -36 62 -6 87 26 22 26 59 0 73
-38 20 -34 100 5 100 8 0 15 6 15 13 0 18 -69 10 -92 -11 -10 -8 -18 -25 -18
-36 0 -32 -28 -66 -54 -66 -30 0 -46 18 -46 51 0 34 24 59 55 59 13 0 37 12
54 26 26 21 38 25 66 20 41 -8 46 5 10 28 -15 10 -25 26 -25 40 0 24 32 61 43
49 4 -3 7 -1 7 5 0 8 -19 12 -51 12 -38 0 -58 6 -83 25 -18 14 -38 25 -44 25
-23 0 -43 46 -33 73 16 43 44 51 75 22 23 -21 26 -30 20 -60 -7 -39 -5 -41 69
-48 35 -3 47 -1 47 9 0 8 -7 14 -15 14 -9 0 -20 11 -27 25 -9 19 -8 29 6 50 9
14 21 25 26 25 6 0 10 5 10 10 0 6 -14 10 -32 10 -21 0 -41 9 -60 27 -20 19
-38 27 -69 27 -51 1 -68 21 -53 63 7 22 17 29 41 31 26 3 35 -2 49 -25 36 -57
67 -83 98 -82 30 0 30 1 9 11 -31 15 -32 72 -3 90 25 16 29 78 5 78 -9 0 -21
11 -27 25 -14 31 3 75 28 75 35 0 3 13 -38 15 -29 2 -47 9 -59 24 -11 13 -29
21 -47 21 -39 0 -54 20 -50 67 3 33 6 38 31 41 34 4 57 -13 57 -43 0 -12 9
-34 21 -49 16 -20 29 -26 60 -26 21 0 39 5 39 10 0 6 -4 10 -9 10 -17 0 -41
31 -41 51 0 11 11 31 25 44 l24 25 -119 0 -120 0 0 -50 c0 -44 5 -55 38 -92
20 -24 47 -51 60 -61 29 -24 28 -62 -2 -82 -44 -29 -89 18 -71 75 5 15 -2 30
-24 56 -27 30 -31 42 -31 94 l0 60 -70 0 -70 0 0 -339 c0 -308 -5 -374 -24
-342 -3 5 -6 160 -6 345 l-1 336 -109 0 -110 0 0 -26z m358 -680 c12 -8 22
-26 22 -38 0 -13 9 -34 19 -48 15 -19 20 -42 21 -99 2 -106 2 -105 -25 -137
-16 -20 -25 -42 -25 -66 0 -44 -29 -64 -66 -47 -19 8 -24 18 -24 45 0 32 4 37
44 55 56 24 68 46 69 135 1 79 -5 96 -34 96 -10 0 -19 7 -19 15 0 8 -5 15 -11
15 -6 0 -8 -9 -4 -20 8 -24 -12 -27 -40 -6 -14 10 -20 27 -21 59 -2 49 -5 46
61 56 6 0 21 -6 33 -15z"/>
<path d="M8683 4975 c-7 -8 -10 -22 -7 -32 5 -14 4 -15 -4 -4 -9 13 -13 13
-28 0 -13 -11 -73 -15 -287 -19 l-269 -5 -112 -105 -112 -105 63 -3 c47 -2 68
1 79 13 8 8 29 15 45 15 24 0 33 -6 44 -32 12 -29 12 -36 -2 -56 -24 -39 4
-15 90 74 42 44 77 88 77 97 0 9 6 14 13 11 7 -2 30 13 50 36 34 35 43 40 85
41 26 0 106 1 178 2 l131 2 46 43 47 42 -58 0 c-36 -1 -62 -6 -69 -15z"/>
<path d="M8803 4920 c-82 -79 -50 -71 -298 -71 l-130 0 -139 -140 -139 -139
-186 0 c-142 0 -192 -3 -206 -14 -16 -11 9 -13 167 -10 102 2 198 4 214 4 23
0 48 19 122 92 l93 92 182 -2 c158 -2 186 0 214 15 17 10 84 69 148 131 l116
112 -43 0 c-39 -1 -49 -6 -115 -70z"/>
<path d="M8282 4654 c-21 -22 -66 -65 -99 -96 l-61 -58 -223 0 c-122 1 -223
-1 -225 -2 -1 -2 -85 -84 -184 -183 -137 -136 -188 -180 -208 -181 -34 -1 -37
-15 -7 -37 24 -17 25 -17 80 33 l55 50 97 -1 97 -1 117 120 c110 113 120 121
161 125 24 2 5 4 -42 5 l-86 2 -37 -38 c-24 -24 -37 -47 -37 -64 0 -35 -24
-58 -61 -58 -23 0 -32 6 -40 28 -15 39 6 74 51 83 23 5 48 22 72 49 l36 41
197 -1 196 0 80 78 81 77 142 -3 141 -3 35 36 35 36 -95 -3 c-82 -3 -95 -5
-92 -20 3 -21 -10 -29 -28 -17 -13 8 -13 10 0 19 11 7 2 10 -32 10 -25 0 -54
3 -62 6 -11 4 -29 -7 -54 -32z"/>
<path d="M3300 4485 c-21 -22 -31 -25 -101 -25 l-77 0 -32 -40 -32 -40 59 -1
c32 0 69 -2 82 -3 19 -2 39 12 83 57 32 34 58 65 58 69 0 15 -16 8 -40 -17z"/>
<path d="M3520 4491 c15 -30 30 -36 82 -36 34 0 51 -5 61 -19 11 -15 27 -18
92 -18 74 0 81 2 101 27 12 15 19 36 17 46 -5 18 -17 19 -185 19 -174 0 -178
-1 -168 -19z"/>
<path d="M3410 4463 c-52 -4 -58 -7 -116 -64 l-60 -60 -102 -1 c-56 0 -102 -4
-102 -8 0 -4 11 -15 25 -24 17 -11 47 -16 103 -16 l80 0 38 43 c54 60 94 88
117 81 12 -4 27 2 42 16 29 27 52 23 78 -12 19 -25 19 -28 3 -52 -20 -32 -52
-33 -82 -5 -33 31 -62 19 -134 -51 l-61 -60 -80 0 -80 0 18 -25 c16 -22 25
-24 80 -23 55 0 65 4 90 30 50 53 72 59 193 55 l109 -4 77 -72 76 -71 90 0
c85 0 90 1 77 18 -7 9 -42 51 -76 93 l-62 76 27 26 27 27 -59 0 c-50 0 -61 -3
-78 -25 -34 -44 -118 -23 -118 30 0 28 -37 72 -65 77 -11 2 -45 2 -75 1z"/>
<path d="M8272 4393 l-61 -67 -103 -2 c-57 -2 -119 -3 -138 -3 -31 -1 -49 -14
-147 -111 -61 -60 -119 -127 -130 -147 -19 -41 -47 -52 -82 -33 -48 25 -9 107
45 94 18 -5 43 16 142 118 l120 123 84 6 83 6 -115 1 -114 2 -121 -120 -122
-120 -99 0 -100 0 -35 -36 c-43 -45 -113 -84 -150 -84 -22 0 -30 6 -35 26 -6
23 -8 24 -21 11 -12 -12 -13 -19 -4 -36 14 -25 1 -24 291 -21 l214 1 94 100
94 99 137 0 c130 0 139 1 159 23 l21 23 -72 -4 c-42 -3 -79 -10 -88 -18 -21
-19 -52 -18 -78 4 -17 14 -20 23 -13 47 7 26 14 30 46 33 22 2 45 -3 54 -10
11 -9 40 -13 85 -12 l69 1 81 81 c58 57 91 82 112 85 28 4 28 4 -6 6 -33 1
-42 -6 -97 -66z"/>
<path d="M9294 4403 c-6 -2 -1 -52 15 -132 l25 -129 56 -1 c30 0 60 3 67 7 8
5 6 36 -9 122 -11 63 -23 118 -27 121 -7 8 -112 17 -127 12z"/>
<path d="M2637 4293 c-3 -10 -8 -35 -12 -55 l-6 -38 69 0 69 0 10 55 10 55
-68 0 c-56 0 -68 -3 -72 -17z"/>
<path d="M3454 4163 c-48 -4 -54 -8 -124 -78 -63 -63 -72 -76 -61 -89 12 -14
19 -10 63 29 28 25 59 45 70 45 11 0 31 9 45 19 31 25 63 15 76 -23 16 -48
-36 -77 -89 -50 -37 19 -40 18 -84 -23 -45 -41 -46 -46 -24 -76 l17 -22 47 48
c46 46 49 47 107 47 51 0 63 -4 83 -25 14 -14 35 -25 50 -25 51 0 81 -50 53
-89 -29 -42 -93 -14 -93 42 0 37 -34 57 -95 57 -46 0 -55 -4 -89 -39 -27 -27
-37 -45 -32 -57 6 -16 8 -16 26 1 11 10 20 24 20 31 0 21 48 53 71 47 33 -9
45 -47 24 -79 -14 -22 -22 -25 -47 -20 -31 6 -58 -7 -58 -27 0 -7 4 -7 12 1 7
7 39 12 73 12 52 0 65 -4 84 -24 13 -13 38 -27 57 -31 37 -6 70 -45 60 -70 -4
-12 3 -15 29 -15 30 0 35 3 35 23 0 30 27 67 49 67 27 0 65 -45 58 -70 -5 -18
-1 -20 35 -20 35 0 39 2 33 21 -7 22 27 69 50 69 22 0 58 -48 52 -70 -5 -20
-2 -20 199 -20 l204 0 0 158 0 158 -30 23 c-35 25 -34 49 3 89 l20 22 -160 0
-160 0 5 -30 c5 -38 -12 -60 -47 -60 -16 0 -37 -10 -51 -25 -19 -20 -33 -25
-75 -25 -46 0 -56 4 -88 35 -34 33 -38 34 -95 29 -59 -5 -59 -5 -113 42 -32
28 -17 10 36 -44 l90 -92 127 4 c94 4 134 9 150 20 12 9 28 16 34 16 19 0 44
-35 44 -61 0 -47 -46 -65 -81 -33 -15 13 -41 16 -149 15 l-131 -2 -125 123
c-69 68 -128 123 -132 124 -4 0 -30 -1 -58 -3z"/>
<path d="M7860 4137 c-14 -13 -32 -31 -40 -42 -14 -18 -13 -18 12 1 24 19 39
20 207 19 100 -2 181 1 181 5 0 4 -8 14 -18 23 -16 14 -43 17 -168 17 -140 -1
-150 -2 -174 -23z"/>
<path d="M4500 4110 c17 -17 19 -28 14 -58 -4 -20 -15 -43 -26 -50 -16 -12
-18 -29 -18 -168 l0 -154 81 0 c74 0 80 1 74 19 -4 12 3 29 19 48 22 24 27 26
45 16 29 -18 81 -17 81 2 0 16 -1 16 68 17 53 1 65 -15 38 -54 -26 -36 -20
-48 23 -48 l38 0 6 63 c5 54 3 65 -16 85 -19 20 -29 23 -64 18 -24 -3 -55 -1
-69 4 -26 10 -26 11 -9 30 17 19 17 21 1 39 -12 13 -17 39 -18 94 -2 83 7 103
50 110 15 2 -55 5 -155 6 l-183 1 20 -20z"/>
<path d="M5360 4126 c0 -3 25 -31 55 -62 l55 -58 0 -192 0 -192 40 -36 40 -36
143 -1 c78 -1 168 0 199 1 48 1 59 -1 64 -17 17 -45 74 -75 74 -38 0 8 -7 15
-15 15 -8 0 -15 3 -16 8 -3 29 -13 48 -60 111 l-53 71 -66 0 c-41 -1 -72 -6
-84 -15 -39 -30 -86 -13 -86 30 0 38 30 54 107 57 l72 3 -40 53 -40 53 -19
-23 c-15 -19 -22 -21 -46 -13 -40 14 -45 57 -10 80 38 25 23 35 -52 35 l-67 0
-85 85 c-72 72 -110 100 -110 81z"/>
<path d="M5493 4062 c65 -66 69 -68 117 -67 28 0 50 1 50 3 0 1 -23 32 -51 67
l-51 65 -66 0 -66 0 67 -68z"/>
<path d="M2630 4111 c-24 -6 -26 -12 -37 -116 -17 -169 -16 -290 3 -306 10 -8
14 -22 10 -39 -7 -36 10 -52 39 -38 16 7 29 7 44 -1 21 -11 21 -10 21 62 0 41
3 121 6 178 l7 104 -34 10 c-71 21 -56 116 19 123 20 2 32 9 32 18 0 15 -62
18 -110 5z"/>
<path d="M7815 4029 c-22 -23 -61 -58 -86 -78 l-45 -37 -262 -2 -262 -1 -35
30 c-46 41 -64 28 -22 -16 l32 -33 279 3 c154 2 290 -1 302 -6 13 -4 47 -31
76 -59 l53 -51 105 3 105 3 74 77 73 77 101 4 c60 1 25 4 -85 5 l-188 2 -40
-36 c-24 -21 -40 -45 -40 -58 0 -38 -22 -58 -59 -54 -19 2 -39 11 -45 21 -17
27 12 70 53 78 18 4 50 24 72 45 34 33 48 40 97 45 48 5 40 6 -45 8 -103 1
-103 1 -103 -23 0 -26 -33 -56 -61 -56 -21 0 -49 32 -49 56 1 55 30 62 290 66
264 4 243 22 -30 26 l-216 2 -39 -41z"/>
<path d="M8141 3820 l-80 -80 -113 -2 -113 -2 137 -5 c123 -5 139 -8 160 -28
23 -22 30 -22 278 -23 l254 0 -44 45 -45 46 -130 -2 c-89 -1 -139 -6 -157 -15
-67 -35 -117 38 -63 91 23 24 31 25 136 25 98 0 110 2 99 15 -10 12 -37 15
-126 15 l-113 0 -80 -80z"/>
<path d="M9370 3628 c0 -68 -3 -153 -6 -190 l-7 -68 72 2 72 1 -21 22 c-25 27
-25 46 0 78 16 20 20 40 20 104 0 76 -1 79 -38 119 -20 23 -49 44 -64 48 l-28
6 0 -122z"/>
<path d="M5765 3500 c-6 -9 -9 -112 -6 -207 1 -33 1 -33 54 -33 41 0 55 4 64
20 16 24 2 33 -31 20 -47 -17 -56 -5 -56 75 0 102 2 105 65 105 57 0 75 -11
55 -35 -18 -22 -2 -36 38 -32 40 4 54 22 23 30 -12 3 -21 15 -23 33 l-3 29
-87 3 c-53 2 -89 -1 -93 -8z"/>
<path d="M8193 3382 c15 -15 27 -36 27 -45 0 -15 14 -17 124 -17 117 0 124 1
139 23 13 20 23 22 103 23 308 3 304 2 304 24 0 20 -7 20 -362 20 l-362 0 27
-28z"/>
<path d="M6820 3348 c-22 -24 -45 -58 -51 -78 -8 -28 -8 -412 0 -587 l1 -21
40 21 c22 12 40 27 40 33 0 17 38 47 50 39 6 -4 25 -1 41 5 l30 13 -22 23
c-13 14 -34 24 -49 24 -34 0 -50 17 -50 52 0 18 8 33 25 44 25 16 27 16 51 -7
15 -14 23 -31 20 -42 -3 -11 6 -31 23 -49 25 -28 29 -29 49 -17 14 9 20 20 16
29 -16 38 -15 59 5 79 28 28 27 31 -17 31 -28 0 -45 7 -62 25 -15 16 -34 25
-55 25 -17 0 -36 5 -43 12 -18 18 -14 63 8 83 18 17 21 17 45 1 14 -9 25 -20
26 -24 6 -55 40 -92 86 -92 38 0 41 8 13 33 -11 9 -20 26 -20 37 0 11 9 29 20
40 11 11 20 32 20 48 0 16 -8 32 -20 40 -22 13 -26 43 -10 73 13 23 47 25 70
4 14 -13 24 -6 95 65 l80 80 -207 0 -207 0 -41 -42z"/>
<path d="M8495 3300 c-16 -18 -31 -20 -147 -20 -107 0 -128 -2 -128 -15 0 -12
15 -15 78 -15 l78 0 49 -45 50 -45 208 0 207 0 0 80 0 80 -188 0 c-176 0 -190
-1 -207 -20z"/>
<path d="M9350 3281 c0 -22 -3 -46 -6 -55 -5 -14 3 -16 53 -16 33 0 64 -5 71
-12 9 -9 12 -7 12 9 0 11 3 41 6 67 l7 46 -72 0 -71 0 0 -39z"/>
<path d="M3830 3295 c7 -8 22 -15 35 -15 25 0 55 -29 55 -54 0 -34 -20 -56
-50 -56 -33 0 -65 36 -54 63 10 28 -28 34 -196 31 l-165 -4 -213 -212 c-198
-199 -211 -213 -184 -216 24 -3 40 9 104 75 97 99 122 124 197 198 33 32 61
67 61 76 0 27 39 69 65 69 26 0 45 -25 45 -59 0 -23 -43 -56 -59 -46 -6 3 -82
-66 -168 -155 -87 -88 -155 -160 -152 -160 4 0 71 65 150 145 l144 145 54 0
c46 0 56 4 74 26 11 15 21 38 22 51 1 27 28 53 55 53 21 0 50 -31 50 -53 0
-22 -39 -57 -65 -57 -12 0 -34 -13 -50 -30 -25 -26 -36 -30 -80 -30 -48 0 -75
-12 -75 -34 0 -6 5 -5 12 2 9 9 74 12 230 12 l218 0 45 41 c31 29 45 50 45 68
0 28 6 39 31 59 21 16 66 -2 75 -30 9 -29 -22 -68 -54 -68 -20 0 -41 -14 -75
-48 -26 -26 -47 -51 -47 -55 0 -4 26 -7 58 -7 l59 0 0 31 c0 32 23 59 50 59
17 0 53 -40 53 -60 0 -24 -33 -50 -63 -50 -34 0 -35 -18 -3 -26 26 -6 146
-124 146 -143 0 -6 17 -11 39 -11 35 0 38 2 34 24 -4 17 3 33 21 51 22 21 29
24 46 15 31 -16 46 -55 30 -75 -11 -13 -7 -15 29 -15 l41 0 0 40 0 40 60 0 60
0 0 -40 c0 -33 3 -40 20 -40 16 0 20 7 20 30 0 36 39 80 70 80 32 0 60 -35 60
-75 0 -24 5 -35 15 -35 13 0 15 29 15 204 l0 204 -31 26 -31 26 -186 -6 c-180
-6 -188 -5 -214 15 -23 19 -39 21 -142 21 -65 0 -116 -4 -116 -9 0 -18 -31
-41 -55 -41 -15 0 -31 10 -41 25 -14 22 -23 25 -76 25 -53 0 -59 -2 -48 -15z
m880 -57 c45 -49 15 -83 -74 -83 l-61 0 -1 -58 c-2 -81 -6 -87 -57 -87 -52 0
-63 10 -69 65 -6 47 6 85 26 85 7 0 32 18 55 40 33 32 47 39 76 38 20 -1 41 4
47 10 18 18 35 15 58 -10z"/>
<path d="M4888 3093 l3 -218 26 -27 c15 -16 38 -28 52 -28 19 0 22 3 13 12
-15 15 -15 51 0 66 35 35 102 -14 78 -57 -10 -20 -8 -21 47 -21 44 0 54 3 45
12 -16 16 -15 53 1 65 28 22 47 22 76 -2 18 -16 41 -25 63 -25 31 0 36 4 44
33 9 31 11 32 64 32 51 0 55 -2 59 -25 1 -14 8 -28 14 -32 11 -7 107 -3 111 4
2 2 15 19 29 39 l27 36 -149 8 c-83 4 -154 4 -159 1 -5 -3 -77 -6 -161 -7
l-152 -2 -29 28 -30 29 0 148 0 148 -37 0 -38 0 3 -217z"/>
<path d="M8220 3205 c0 -12 13 -15 59 -15 58 0 61 -1 118 -54 l59 -54 217 -1
c211 -1 217 0 217 19 0 19 -7 20 -213 20 l-212 0 -52 50 -52 50 -70 0 c-56 0
-71 -3 -71 -15z"/>
<path d="M8220 3132 c0 -15 9 -19 48 -21 42 -2 52 -7 103 -58 l57 -55 153 6
c85 3 189 5 232 6 62 0 77 3 77 15 0 13 -31 15 -223 15 l-223 0 -54 55 c-53
54 -55 55 -112 55 -49 0 -58 -3 -58 -18z"/>
<path d="M8220 3056 c0 -20 5 -26 21 -26 12 0 47 -26 82 -59 l62 -59 95 -2
c52 -1 166 -1 253 -1 l157 1 0 25 0 25 -167 1 c-93 1 -199 0 -237 -1 l-68 -2
-58 57 c-46 45 -65 58 -99 62 -39 5 -41 4 -41 -21z"/>
<path d="M2630 3020 c0 -32 9 -37 27 -19 17 17 62 2 75 -26 9 -20 7 -29 -8
-52 -12 -18 -20 -53 -24 -101 -3 -39 -3 -72 -2 -72 11 0 62 65 62 79 0 9 7 29
15 45 13 25 14 39 5 85 -19 97 -14 91 -86 91 l-64 0 0 -30z"/>
<path d="M8220 2966 c0 -16 20 -44 63 -85 l62 -61 273 0 272 0 0 25 0 25 -258
0 -258 0 -59 60 c-64 64 -95 76 -95 36z"/>
<path d="M9277 2863 l-17 -77 52 -53 c29 -29 55 -50 59 -45 3 4 14 40 24 80
l18 74 -49 49 c-26 27 -53 49 -59 49 -5 0 -18 -35 -28 -77z"/>
<path d="M3685 2889 c-38 -6 -37 -6 16 -8 45 -1 60 -6 79 -26 21 -23 31 -25
106 -25 72 0 85 3 94 19 15 29 46 35 74 14 14 -10 26 -24 26 -30 0 -7 9 -13
20 -13 20 0 20 0 -1 30 -12 16 -29 32 -38 36 -21 8 -324 11 -376 3z"/>
<path d="M2835 2500 l-49 -50 19 -56 19 -55 53 53 53 54 -16 47 c-9 26 -19 49
-23 52 -4 2 -30 -18 -56 -45z"/>
<path d="M3583 2368 c-22 -24 -43 -54 -47 -68 -3 -14 -71 -92 -151 -174 -80
-82 -145 -153 -145 -158 0 -4 13 -8 29 -8 23 0 54 26 174 145 136 136 148 145
184 145 34 0 48 9 123 80 l85 80 -40 0 c-48 -1 -85 -28 -85 -63 0 -57 -76 -80
-99 -30 -10 23 -9 30 7 52 12 16 29 26 45 26 14 0 29 3 33 8 4 4 -10 7 -32 7
-34 0 -46 -7 -81 -42z"/>
<path d="M4172 2391 c18 -29 -3 -67 -41 -74 l-31 -6 0 -169 c0 -157 -2 -171
-21 -196 -24 -31 -23 -34 11 -37 61 -5 73 8 48 54 -19 36 -18 67 3 88 25 25
24 61 -1 77 -30 18 -27 75 4 91 18 10 28 10 45 1 17 -9 26 -9 38 1 12 11 17
10 24 -1 27 -45 27 -45 49 -17 12 15 30 27 41 27 11 0 38 14 60 32 33 26 39
37 39 68 0 21 7 43 15 50 8 7 15 16 15 21 0 5 -70 9 -155 9 -151 0 -155 -1
-143 -19z"/>
<path d="M4554 2394 c21 -20 20 -78 0 -99 -11 -11 -29 -15 -53 -13 -32 3 -41
-2 -74 -38 -20 -23 -37 -47 -37 -53 0 -7 20 -34 45 -60 43 -46 45 -50 45 -110
0 -34 4 -61 10 -61 6 0 10 21 10 46 0 25 5 55 11 67 6 12 57 68 112 124 98 99
100 103 87 128 -8 15 -22 25 -35 25 -12 0 -37 14 -55 30 -36 32 -97 45 -66 14z"/>
<path d="M4840 2378 c0 -18 6 -49 13 -68 23 -66 40 -78 51 -35 3 13 15 29 26
35 40 21 83 -27 61 -69 -6 -11 -11 -52 -11 -91 l0 -70 26 6 c35 9 70 -25 72
-71 1 -30 -3 -37 -31 -52 l-32 -16 54 -25 c43 -20 58 -22 77 -13 28 13 30 29
7 69 -16 28 -16 31 0 55 10 16 17 46 17 76 0 41 -4 52 -21 62 -19 9 -21 17
-15 55 5 42 3 46 -44 96 -27 29 -50 61 -50 71 0 15 -12 17 -100 17 l-100 0 0
-32z"/>
<path d="M5130 2383 c31 -39 54 -53 71 -42 8 5 104 9 215 9 l201 0 79 -80 c50
-51 82 -76 88 -70 6 6 5 19 -3 36 -11 25 -9 30 13 53 l26 26 0 -68 0 -67 138
0 138 0 61 -62 c33 -35 63 -69 65 -77 3 -9 12 -2 26 20 l22 34 0 -51 c0 -62
15 -82 84 -118 57 -30 78 -32 101 -9 16 15 6 27 -141 174 -87 87 -161 156
-165 153 -4 -2 -22 15 -40 38 -19 24 -52 62 -74 85 l-40 43 -443 0 -443 0 21
-27z"/>
<path d="M6266 2402 c-3 -5 42 -55 99 -112 l105 -103 0 52 c0 51 -1 53 -62
111 -53 51 -69 60 -100 60 -20 0 -39 -4 -42 -8z"/>
<path d="M6782 2398 c-7 -7 -12 -28 -12 -48 0 -20 5 -41 12 -48 8 -8 60 -12
170 -12 l157 0 35 -30 c30 -27 35 -28 41 -13 4 13 -5 28 -37 56 -38 33 -48 37
-93 36 -35 -1 -57 -8 -72 -22 -21 -19 -23 -19 -23 -3 0 14 -5 16 -17 10 -44
-19 -93 -4 -93 29 0 46 55 64 92 30 10 -9 18 -12 18 -7 0 24 -28 34 -95 34
-42 0 -76 -5 -83 -12z"/>
<path d="M7270 2401 c0 -6 5 -13 10 -16 15 -10 12 -55 -5 -61 -8 -4 -15 -12
-15 -20 0 -11 30 -14 160 -14 l161 0 62 -60 c46 -44 63 -55 66 -43 2 10 -37
56 -100 119 l-104 104 -117 0 c-67 0 -118 -4 -118 -9z"/>
<path d="M7858 2250 c131 -131 166 -160 189 -160 15 0 38 -3 49 -6 20 -5 22
-1 25 38 l4 43 -53 -3 -52 -4 -128 126 c-112 111 -131 126 -161 126 -33 0 -30
-3 127 -160z"/>
<path d="M7821 2406 c2 -3 49 -50 103 -105 l99 -101 62 0 c56 0 65 3 79 25 9
14 22 22 30 19 8 -3 17 -1 21 5 4 8 -26 11 -97 11 l-104 0 -74 75 c-52 53 -82
75 -99 75 -13 0 -22 -2 -20 -4z"/>
<path d="M7961 2354 l57 -57 98 0 c55 0 219 0 366 1 261 1 267 2 278 22 7 12
10 23 8 26 -2 2 -165 4 -362 4 -260 1 -362 -2 -372 -11 -11 -9 -23 -3 -59 30
-67 62 -78 49 -14 -15z"/>
<path d="M6207 2324 l-35 -49 42 -45 c24 -25 91 -92 149 -149 l107 -105 0 85
0 84 -114 114 -114 114 -35 -49z"/>
<path d="M3991 2286 c-40 -40 -51 -59 -51 -83 0 -18 5 -35 10 -38 6 -3 10 -30
10 -60 0 -47 2 -53 19 -48 25 6 58 -12 66 -38 8 -23 -18 -59 -44 -60 -11 0 -9
-4 7 -11 18 -9 26 -8 39 5 15 14 17 43 17 197 1 123 -2 181 -10 184 -6 2 -34
-19 -63 -48z"/>
<path d="M5358 2272 c-16 -2 -28 -9 -28 -16 0 -9 9 -12 27 -8 28 5 53 -17 53
-49 0 -27 -30 -51 -57 -46 -22 4 -23 1 -23 -50 0 -50 1 -54 21 -48 26 8 59
-20 59 -50 0 -40 17 -45 149 -45 97 0 122 3 113 12 -19 19 -14 62 9 76 30 19
56 6 69 -34 l12 -36 29 28 29 28 0 -26 c0 -14 8 -32 18 -39 14 -11 15 -11 5 1
-17 18 -16 52 0 75 33 45 98 -19 68 -67 -11 -18 -9 -19 36 -16 46 3 48 5 50
33 1 17 5 46 10 65 7 29 11 32 18 19 6 -9 19 -18 30 -20 11 -2 24 -14 30 -27
7 -15 18 -22 37 -22 16 0 28 4 28 8 0 4 -19 27 -43 50 l-43 42 -141 0 c-154 0
-204 6 -197 24 2 6 -25 40 -61 76 l-66 65 -107 0 c-59 0 -119 -1 -134 -3z"/>
<path d="M6770 2214 c0 -50 2 -53 68 -118 80 -78 102 -83 152 -31 19 19 39 35
45 35 17 0 45 -34 45 -53 0 -15 17 -17 160 -17 l160 0 39 -35 c28 -25 48 -35
72 -35 l33 0 -63 63 -62 62 -132 0 c-130 0 -132 0 -161 28 -18 16 -40 27 -58
27 -54 0 -62 79 -9 93 29 7 61 -20 61 -52 0 -55 25 -64 172 -62 l133 2 80 -81
c70 -70 84 -80 115 -80 l35 1 -109 104 -110 105 -88 0 c-62 0 -88 -4 -88 -12
0 -9 -3 -9 -12 0 -7 7 -21 12 -33 12 -11 0 -40 20 -65 45 l-43 44 -169 3 -168
3 0 -51z"/>
<path d="M7260 2232 l0 -28 90 4 90 4 122 -120 123 -121 32 31 c18 18 35 40
39 50 7 25 -43 67 -81 68 -27 1 -28 2 -13 14 16 12 12 18 -39 69 l-57 57 -153
0 -153 0 0 -28z"/>
<path d="M8399 2253 l53 -4 -23 -25 -22 -24 49 0 c53 0 58 -4 160 -101 37 -36
43 -39 68 -29 23 8 31 6 51 -14 26 -27 35 -24 35 11 0 16 -6 23 -19 23 -10 0
-24 7 -31 15 -8 10 -31 15 -66 15 -49 0 -68 10 -46 24 5 3 7 19 4 36 -6 42 22
73 59 65 15 -3 30 -1 34 4 4 8 -50 10 -177 9 -101 -1 -159 -3 -129 -5z"/>
<path d="M3705 2230 c-10 -11 -26 -20 -35 -20 -9 0 -21 -5 -28 -12 -8 -8 -15
-8 -27 2 -14 12 -28 2 -106 -76 -50 -49 -104 -106 -121 -126 l-30 -38 31 0
c21 0 33 6 37 18 12 39 34 67 54 70 31 5 50 -16 50 -54 0 -34 1 -34 45 -34 44
0 44 0 33 25 -10 22 -8 30 10 55 12 16 22 39 22 50 0 12 23 45 50 74 28 29 50
58 50 64 0 21 -17 21 -35 2z"/>
<path d="M3717 2142 c-26 -26 -47 -54 -47 -62 0 -7 10 -24 22 -37 19 -21 21
-28 11 -53 -6 -17 -7 -30 -3 -30 26 0 101 111 102 151 1 29 -19 79 -32 79 -3
0 -27 -22 -53 -48z"/>
<path d="M8351 2133 c-17 -20 -29 -39 -26 -41 2 -3 41 -4 85 -3 l81 2 68 -66
c57 -55 73 -65 102 -65 28 1 31 2 16 11 -9 6 -23 23 -30 38 -6 15 -44 57 -84
94 -71 66 -73 67 -127 67 -51 0 -57 -3 -85 -37z"/>
<path d="M8300 2050 c-21 -5 -25 -12 -25 -45 l0 -40 48 -3 c44 -3 47 -1 47 20
0 58 61 65 107 13 23 -26 39 -35 62 -35 39 0 33 17 -20 59 -35 29 -47 32 -117
35 -42 2 -88 0 -102 -4z"/>
<path d="M7080 1970 l0 -30 73 0 c43 0 78 5 85 12 8 8 43 11 104 9 l92 -2 -18
20 c-18 20 -30 21 -178 21 l-158 0 0 -30z"/>
<path d="M8926 1978 c-7 -13 -25 -42 -39 -64 l-26 -41 38 -37 c51 -50 72 -47
110 14 17 28 31 53 31 57 0 7 -88 93 -95 93 -2 0 -11 -10 -19 -22z"/>
<path d="M3295 1640 l-48 -49 24 -35 c19 -29 26 -33 42 -24 10 5 29 7 42 4 17
-4 30 0 45 16 11 12 20 25 20 28 0 4 -17 29 -38 58 l-39 51 -48 -49z"/>
<path d="M3708 1163 l-46 -48 30 -24 c26 -21 43 -25 129 -29 105 -5 123 -13
117 -54 -7 -51 -88 -55 -88 -3 0 13 -5 25 -12 27 -18 6 -58 -3 -58 -13 0 -5
30 -34 68 -64 l67 -56 28 31 c38 43 38 98 -2 127 -16 12 -62 51 -103 87 -42
36 -77 66 -80 66 -2 0 -24 -21 -50 -47z"/>
<path d="M8228 1132 c-19 -19 -24 -33 -19 -47 4 -11 7 -48 6 -82 l-2 -62 26
19 c14 11 46 37 70 58 50 44 49 48 -15 105 l-41 36 -25 -27z"/>
<path d="M7898 879 c-22 -16 -28 -29 -29 -62 -1 -23 -5 -55 -9 -72 -6 -24 -8
-17 -9 33 0 34 -4 62 -7 62 -3 0 -19 -9 -35 -21 -28 -20 -29 -24 -29 -100 l0
-79 78 48 77 49 3 81 c2 45 -1 82 -5 82 -4 0 -20 -10 -35 -21z"/>
<path d="M7743 778 c-6 -7 -14 -23 -18 -36 -5 -19 -13 -22 -43 -21 -27 2 -56
-8 -107 -36 -39 -21 -71 -39 -73 -40 -1 -1 -4 -17 -7 -35 -5 -43 -15 -51 -15
-12 0 35 -6 38 -45 20 -23 -11 -25 -16 -25 -85 0 -40 2 -73 4 -73 1 0 17 5 35
11 23 8 31 17 31 35 0 13 5 24 10 24 6 0 10 -7 10 -15 0 -8 3 -15 6 -15 3 0
63 29 133 65 l126 65 0 74 c0 78 -5 95 -22 74z"/>
<path d="M4800 510 c0 -23 -7 -54 -15 -70 -14 -27 -13 -29 5 -35 12 -4 26 1
39 14 33 33 57 23 63 -24 4 -41 38 -48 38 -9 0 33 17 21 22 -15 1 -14 9 -26
16 -29 9 -3 12 14 12 61 0 40 -5 68 -12 75 -16 12 -88 43 -88 37 0 -2 14 -18
30 -35 17 -17 30 -38 30 -47 0 -12 -7 -7 -23 14 -20 28 -103 103 -113 103 -2
0 -4 -18 -4 -40z"/>
<path d="M7235 532 c-51 -20 -51 -20 -37 -34 19 -19 14 -38 -9 -35 -12 1 -24
-3 -26 -10 -3 -8 6 -11 24 -10 22 2 29 -3 31 -20 6 -39 -66 -48 -103 -12 -16
16 -18 23 -9 48 l11 28 -31 -9 c-30 -10 -31 -11 -34 -80 l-3 -71 28 6 c15 3
67 20 116 37 l87 32 0 74 c0 41 -1 74 -2 73 -2 -1 -21 -8 -43 -17z"/>
<path d="M5170 390 c0 -34 74 -128 102 -129 9 -1 43 -8 75 -16 94 -25 93 -25
93 55 0 67 -1 70 -24 70 -13 0 -31 3 -40 6 -12 5 -16 -1 -16 -24 0 -23 -8 -36
-31 -53 l-30 -21 -31 28 c-25 25 -29 35 -25 65 4 34 3 37 -25 43 -46 9 -48 8
-48 -24z"/>
<path d="M5710 259 l0 -66 53 -7 c28 -3 69 -6 90 -6 l37 0 0 65 c0 36 -1 65
-2 66 -2 0 -42 4 -90 7 l-88 7 0 -66z"/>
</g>
</svg>
